<svg width="60" height="60" viewBox="0 0 60 60" fill="none" xmlns="http://www.w3.org/2000/svg">
<circle cx="46" cy="14" r="4" fill="#4CBC9A"/>
<path d="M30.0001 16.6667C22.6667 16.6667 16.6667 22.6667 16.6667 30C16.6667 33.0667 17.7334 36 19.7334 38.4L17.0667 41.0667C16.5334 41.6 16.5334 42.4 17.0667 42.9333C17.3334 43.2 17.6001 43.3333 18.0001 43.3333H30.0001C37.3334 43.3333 43.3334 37.3333 43.3334 30C43.3334 22.6667 37.3334 16.6667 30.0001 16.6667ZM31.3334 34H23.3334C22.5334 34 22.0001 33.4667 22.0001 32.6667C22.0001 31.8667 22.5334 31.3333 23.3334 31.3333H31.3334C32.1334 31.3333 32.6667 31.8667 32.6667 32.6667C32.6667 33.4667 32.1334 34 31.3334 34ZM36.6667 28.6667H23.3334C22.5334 28.6667 22.0001 28.1333 22.0001 27.3333C22.0001 26.5333 22.5334 26 23.3334 26H36.6667C37.4667 26 38.0001 26.5333 38.0001 27.3333C38.0001 28.1333 37.4667 28.6667 36.6667 28.6667Z" fill="#A098AE"/>
</svg>
