<svg width="24" height="24" viewBox="0 0 24 24" fill="none" xmlns="http://www.w3.org/2000/svg">
<path d="M11.998 14.5001L11.9972 14.5001C11.9314 14.5004 11.8661 14.4878 11.8052 14.4629C11.7446 14.4382 11.6894 14.4017 11.6428 14.3556C11.6426 14.3554 11.6424 14.3552 11.6422 14.3551L7.64362 10.3565C7.54908 10.262 7.49597 10.1337 7.49597 10C7.49597 9.86635 7.54908 9.73814 7.64362 9.6436C7.73815 9.54907 7.86637 9.49596 8.00006 9.49596C8.13365 9.49596 8.26178 9.54898 8.35629 9.64338C8.35636 9.64346 8.35644 9.64353 8.35651 9.6436L11.646 12.9431L11.9995 13.2977L12.3536 12.9436L15.6276 9.6696C15.7214 9.59436 15.8393 9.55531 15.9598 9.55996C16.0857 9.56482 16.205 9.61699 16.2941 9.70604C16.3831 9.79508 16.4353 9.91445 16.4401 10.0403C16.4448 10.1608 16.4058 10.2787 16.3305 10.3725L12.348 14.3551C12.3478 14.3552 12.3476 14.3554 12.3474 14.3556C12.2543 14.4476 12.1289 14.4995 11.998 14.5001Z" fill="#A098AE" stroke="#A098AE"/>
</svg>
