<svg width="60" height="60" viewBox="0 0 60 60" fill="none" xmlns="http://www.w3.org/2000/svg">
<g clip-path="url(#clip0_702_626)">
<path d="M41.3599 34.28L38.9599 31.8667V25.92C38.9919 23.7118 38.2238 21.5665 36.7974 19.8805C35.3711 18.1944 33.3829 17.0812 31.1999 16.7467C29.933 16.5798 28.6451 16.6851 27.4221 17.0554C26.1991 17.4258 25.0691 18.0527 24.1076 18.8943C23.146 19.736 22.3751 20.773 21.8461 21.9363C21.3171 23.0995 21.0423 24.3621 21.0399 25.64V31.8667L18.6399 34.28C18.3385 34.5865 18.134 34.975 18.0522 35.3971C17.9704 35.8191 18.0147 36.2559 18.1798 36.6529C18.3448 37.0498 18.6232 37.3893 18.9801 37.6289C19.3371 37.8685 19.7567 37.9976 20.1866 38H24.6666V38.4533C24.7289 39.8069 25.3252 41.0806 26.3249 41.9954C27.3246 42.9101 28.6461 43.3912 29.9999 43.3333C31.3537 43.3912 32.6753 42.9101 33.675 41.9954C34.6747 41.0806 35.271 39.8069 35.3333 38.4533V38H39.8133C40.2432 37.9976 40.6628 37.8685 41.0197 37.6289C41.3767 37.3893 41.6551 37.0498 41.8201 36.6529C41.9851 36.2559 42.0295 35.8191 41.9477 35.3971C41.8658 34.975 41.6614 34.5865 41.3599 34.28ZM32.6666 38.4533C32.5927 39.0947 32.2741 39.6827 31.7774 40.0951C31.2806 40.5074 30.6439 40.7121 29.9999 40.6667C29.356 40.7121 28.7193 40.5074 28.2225 40.0951C27.7257 39.6827 27.4072 39.0947 27.3333 38.4533V38H32.6666V38.4533Z" fill="#A098AE"/>
</g>
<circle cx="46" cy="14" r="4" fill="#4CBC9A"/>
<defs>
<clipPath id="clip0_702_626">
<rect width="32" height="32" fill="white" transform="translate(14 14)"/>
</clipPath>
</defs>
</svg>
