<svg width="60" height="60" viewBox="0 0 60 60" fill="none" xmlns="http://www.w3.org/2000/svg">
<path fill-rule="evenodd" clip-rule="evenodd" d="M29.25 18C28.4216 18 27.75 18.6716 27.75 19.5L27.5699 20.7605C27.4087 21.8891 26.0971 22.4324 25.185 21.7484L24.1664 20.9844C23.5806 20.3986 22.6308 20.3986 22.0451 20.9844L20.9844 22.0451C20.3986 22.6308 20.3986 23.5806 20.9844 24.1664L21.7484 25.185C22.4324 26.0971 21.8891 27.4087 20.7605 27.5699L19.5 27.75C18.6716 27.75 18 28.4216 18 29.25V30.75C18 31.5784 18.6716 32.25 19.5 32.25L20.7605 32.4301C21.8891 32.5913 22.4324 33.9029 21.7484 34.8149L20.9844 35.8336C20.3986 36.4195 20.3986 37.3692 20.9844 37.9549L22.0451 39.0156C22.6308 39.6015 23.5806 39.6015 24.1664 39.0156L25.185 38.2516C26.0971 37.5676 27.4087 38.1109 27.5699 39.2395L27.75 40.5C27.75 41.3284 28.4216 42 29.25 42H30.75C31.5784 42 32.25 41.3284 32.25 40.5L32.4301 39.2395C32.5913 38.1109 33.9029 37.5676 34.8149 38.2516L35.8336 39.0156C36.4195 39.6015 37.3692 39.6015 37.9549 39.0156L39.0156 37.9549C39.6013 37.3692 39.6013 36.4195 39.0156 35.8336L38.2516 34.8149C37.5676 33.9029 38.1109 32.5913 39.2395 32.4301L40.5 32.25C41.3284 32.25 42 31.5784 42 30.75V29.25C42 28.4216 41.3284 27.75 40.5 27.75L39.2395 27.5699C38.1109 27.4087 37.5676 26.0971 38.2516 25.185L39.0156 24.1664C39.6013 23.5806 39.6013 22.6308 39.0156 22.0451L37.9549 20.9844C37.3692 20.3986 36.4195 20.3986 35.8336 20.9844L34.8149 21.7484C33.9029 22.4324 32.5913 21.8891 32.4301 20.7605L32.25 19.5C32.25 18.6716 31.5784 18 30.75 18H29.25ZM30 33C31.6568 33 33 31.6568 33 30C33 28.3432 31.6568 27 30 27C28.3432 27 27 28.3432 27 30C27 31.6568 28.3432 33 30 33Z" fill="#A098AE"/>
</svg>
